<svg xmlns="http://www.w3.org/2000/svg" xmlns:xlink="http://www.w3.org/1999/xlink" width="500" zoomAndPan="magnify" viewBox="0 0 375 374.999991" height="500" preserveAspectRatio="xMidYMid meet" version="1.0"><defs><g/></defs><g fill="#000000" fill-opacity="1"><g transform="translate(141.436386, 196.47759)"><g><path d="M 9.390625 -4.140625 L 9.390625 -2.515625 L 1.015625 -6.28125 L 1.015625 -7.546875 L 9.390625 -11.3125 L 9.390625 -9.6875 L 3.1875 -7.015625 L 3.1875 -6.8125 Z M 9.390625 -4.140625 "/></g></g></g><g fill="#000000" fill-opacity="1"><g transform="translate(162.364579, 196.928908)"><g><path d="M 9.042969 1.460938 C 9.25 1.460938 9.402344 1.3125 9.421875 1.101562 C 9.59375 -2.335938 9.746094 -4.804688 9.746094 -6.878906 C 9.746094 -8.683594 9.652344 -10.144531 9.402344 -11.742188 C 9.195312 -13.03125 8.738281 -13.753906 8.054688 -13.753906 C 6.6875 -13.753906 5.792969 -10.503906 5.300781 -8.472656 C 5.207031 -8.074219 5.148438 -7.75 5.089844 -7.484375 C 4.9375 -9.003906 4.671875 -11.722656 3.363281 -11.722656 C 1.9375 -11.722656 1.671875 -8.777344 0.761719 -3.761719 C 0.777344 -5.984375 0.988281 -9.003906 1.597656 -13.183594 C 1.613281 -13.394531 1.480469 -13.5625 1.273438 -13.621094 C 1.0625 -13.640625 0.894531 -13.507812 0.835938 -13.296875 C 0.4375 -10.355469 0 -6.609375 0 -3.265625 C 0 -2.222656 0.0390625 -1.253906 0.132812 -0.34375 C 0.152344 -0.132812 0.285156 0 0.492188 0 C 0.703125 0 0.855469 -0.09375 0.875 -0.304688 C 1.863281 -5.414062 2.601562 -10.960938 3.34375 -10.960938 C 4.160156 -10.960938 4.503906 -6.289062 4.503906 -3.703125 C 4.503906 -3.191406 4.484375 -2.773438 4.464844 -2.46875 C 4.445312 -2.242188 4.636719 -2.050781 4.863281 -2.050781 C 5.074219 -2.050781 5.207031 -2.183594 5.222656 -2.394531 C 5.832031 -9.59375 7.429688 -13.050781 8.054688 -12.996094 C 8.1875 -12.976562 8.492188 -12.710938 8.664062 -11.625 C 8.890625 -10.105469 9.003906 -8.699219 9.003906 -6.933594 C 9.003906 -4.957031 8.871094 -2.527344 8.664062 1.0625 C 8.644531 1.273438 8.796875 1.460938 9.003906 1.460938 Z M 9.042969 1.460938 "/></g></g></g><g fill="#000000" fill-opacity="1"><g transform="translate(173.059391, 196.928908)"><g><path d="M 1.042969 -2.753906 C 1.328125 -2.753906 1.519531 -2.945312 1.519531 -3.230469 C 1.519531 -3.515625 1.328125 -3.703125 1.042969 -3.703125 C 0.761719 -3.703125 0.570312 -3.515625 0.570312 -3.230469 C 0.570312 -2.945312 0.761719 -2.753906 1.042969 -2.753906 Z M 1.027344 -3.230469 L 1.042969 -3.25 L 1.0625 -3.230469 L 1.042969 -3.210938 Z M 1.027344 -3.230469 "/></g></g></g><g fill="#000000" fill-opacity="1"><g transform="translate(175.148968, 196.928908)"><g><path d="M 1.027344 0 C 1.234375 0 1.386719 -0.171875 1.386719 -0.378906 C 1.328125 -1.347656 1.445312 -2.964844 1.671875 -4.789062 C 3.363281 -5.355469 4.40625 -5.625 5.71875 -5.832031 L 5.71875 -5.054688 C 5.71875 -3.820312 5.699219 -2.546875 5.640625 -1.273438 C 5.640625 -1.027344 5.757812 -0.894531 6.003906 -0.875 C 6.210938 -0.875 6.402344 -1.027344 6.402344 -1.234375 C 6.460938 -2.46875 6.476562 -3.800781 6.476562 -5.109375 L 6.476562 -5.945312 L 7.410156 -6.058594 C 7.617188 -6.078125 7.730469 -6.210938 7.730469 -6.421875 L 7.730469 -6.476562 C 7.714844 -6.6875 7.5625 -6.820312 7.351562 -6.820312 L 7.3125 -6.820312 L 6.460938 -6.707031 C 6.402344 -10.105469 6.363281 -12.976562 4.824219 -13.527344 C 4.636719 -13.582031 4.484375 -13.621094 4.351562 -13.621094 C 2.203125 -13.621094 1.273438 -7.941406 0.96875 -5.375 C 0.644531 -5.242188 0.285156 -5.128906 -0.113281 -4.996094 C -0.285156 -4.9375 -0.378906 -4.804688 -0.378906 -4.636719 C -0.378906 -4.578125 -0.378906 -4.539062 -0.359375 -4.519531 C -0.304688 -4.351562 -0.171875 -4.253906 0 -4.253906 L 0.0585938 -4.253906 C 0.132812 -4.253906 0.265625 -4.3125 0.875 -4.539062 C 0.664062 -2.792969 0.609375 -1.273438 0.625 -0.359375 C 0.625 -0.152344 0.796875 0 1.007812 0 Z M 1.785156 -5.625 C 2.015625 -7.21875 2.886719 -12.84375 4.371094 -12.84375 C 4.804688 -12.84375 5.128906 -12.40625 5.339844 -11.664062 C 5.546875 -10.921875 5.640625 -8.984375 5.699219 -6.609375 C 4.332031 -6.402344 3.304688 -6.097656 1.785156 -5.625 Z M 1.785156 -5.625 "/></g></g></g><g fill="#000000" fill-opacity="1"><g transform="translate(183.260311, 196.928908)"><g><path d="M 0.378906 -2.679688 C 0.589844 -2.679688 0.761719 -2.832031 0.761719 -3.039062 C 0.855469 -5.074219 2.832031 -7.3125 3.820312 -7.125 C 4.027344 -7.066406 4.199219 -7.199219 4.253906 -7.410156 C 4.3125 -7.617188 4.179688 -7.808594 3.96875 -7.863281 C 3.835938 -7.882812 3.742188 -7.902344 3.667969 -7.902344 C 2.601562 -7.902344 1.480469 -6.667969 0.929688 -5.757812 C 0.988281 -6.308594 1.007812 -6.878906 1.007812 -7.464844 C 1.007812 -7.675781 0.835938 -7.847656 0.625 -7.847656 C 0.417969 -7.847656 0.246094 -7.675781 0.246094 -7.464844 C 0.226562 -6.023438 0.0195312 -4.558594 0 -3.058594 C 0 -2.851562 0.171875 -2.699219 0.378906 -2.679688 Z M 0.378906 -2.679688 "/></g></g></g><g fill="#000000" fill-opacity="1"><g transform="translate(187.64841, 196.928908)"><g><path d="M -0.0585938 -2.699219 C 0.113281 -2.582031 0.304688 -2.527344 0.511719 -2.527344 C 1.214844 -2.527344 2.03125 -3.34375 2.46875 -4.046875 C 2.414062 -3.152344 2.832031 -2.527344 3.496094 -2.527344 C 4.253906 -2.527344 5.355469 -3.34375 6.574219 -5.566406 C 6.59375 -5.640625 6.609375 -5.699219 6.609375 -5.738281 C 6.609375 -5.890625 6.535156 -6.003906 6.402344 -6.078125 C 6.363281 -6.097656 6.308594 -6.117188 6.230469 -6.117188 C 6.078125 -6.117188 5.964844 -6.058594 5.890625 -5.925781 C 5.28125 -4.710938 4.160156 -3.304688 3.609375 -3.304688 C 3.402344 -3.304688 3.285156 -3.476562 3.285156 -3.988281 C 3.285156 -4.238281 3.304688 -4.539062 3.382812 -4.921875 C 3.4375 -5.320312 3.515625 -5.71875 3.648438 -6.078125 C 3.742188 -6.363281 3.570312 -6.609375 3.285156 -6.609375 C 3.152344 -6.609375 3.039062 -6.535156 2.945312 -6.382812 C 2.488281 -5.507812 1.746094 -4.066406 0.96875 -3.496094 C 0.796875 -3.363281 0.664062 -3.304688 0.53125 -3.304688 C 0.324219 -3.304688 0.226562 -3.457031 0.226562 -3.78125 C 0.226562 -4.769531 1.347656 -6.972656 3.382812 -6.972656 C 3.589844 -6.972656 3.761719 -7.144531 3.761719 -7.351562 C 3.761719 -7.5625 3.589844 -7.730469 3.382812 -7.730469 C 1.007812 -7.730469 -0.511719 -5.320312 -0.511719 -3.78125 C -0.511719 -3.304688 -0.359375 -2.90625 -0.0585938 -2.699219 Z M -0.0585938 -2.699219 "/></g></g></g><g fill="#000000" fill-opacity="1"><g transform="translate(193.32825, 196.928908)"><g><path d="M 3.078125 3.914062 C 3.742188 2.488281 4.101562 0.570312 4.3125 -0.988281 L 6.496094 -3.171875 C 7.238281 -3.914062 7.882812 -4.710938 8.453125 -5.585938 C 8.492188 -5.640625 8.511719 -5.699219 8.511719 -5.773438 C 8.511719 -5.910156 8.453125 -6.023438 8.339844 -6.097656 C 8.28125 -6.136719 8.207031 -6.15625 8.113281 -6.15625 C 7.980469 -6.15625 7.863281 -6.097656 7.808594 -6.003906 C 6.894531 -4.578125 5.660156 -3.382812 4.445312 -2.183594 C 4.578125 -3.324219 4.597656 -4.445312 4.597656 -5.433594 C 4.597656 -6.191406 4.578125 -6.859375 4.519531 -7.410156 C 4.503906 -7.617188 4.351562 -7.75 4.179688 -7.75 C 3.96875 -7.769531 3.835938 -7.675781 3.78125 -7.464844 C 3.265625 -5.394531 2.148438 -3.800781 1.253906 -3.609375 C 0.855469 -3.535156 0.683594 -3.800781 0.683594 -4.3125 C 0.683594 -4.9375 0.949219 -5.890625 1.425781 -6.859375 C 1.445312 -6.894531 1.445312 -6.953125 1.445312 -7.011719 C 1.445312 -7.21875 1.3125 -7.410156 1.0625 -7.410156 C 0.910156 -7.410156 0.796875 -7.332031 0.742188 -7.199219 C 0.152344 -6.003906 -0.0742188 -5.054688 -0.0742188 -4.351562 C -0.0742188 -3.34375 0.398438 -2.832031 1.0625 -2.832031 C 1.898438 -2.832031 3.019531 -3.648438 3.835938 -5.375 C 3.835938 -4.085938 3.761719 -2.714844 3.589844 -1.347656 C 1.027344 1.214844 0.152344 3.285156 0.152344 4.503906 C 0.152344 5.320312 0.550781 5.757812 1.082031 5.757812 C 1.691406 5.757812 2.488281 5.1875 3.078125 3.914062 Z M 0.988281 4.921875 C 0.949219 4.84375 0.929688 4.730469 0.929688 4.578125 C 0.929688 4.21875 1.042969 3.683594 1.40625 2.90625 C 1.730469 2.222656 2.316406 1.214844 3.402344 -0.0195312 C 2.582031 4.882812 1.082031 5.167969 0.988281 4.921875 Z M 0.988281 4.921875 "/></g></g></g><g fill="#000000" fill-opacity="1"><g transform="translate(200.888708, 196.928908)"><g><path d="M -0.0585938 -2.699219 C 0.113281 -2.582031 0.304688 -2.527344 0.511719 -2.527344 C 1.214844 -2.527344 2.03125 -3.34375 2.46875 -4.046875 C 2.414062 -3.152344 2.832031 -2.527344 3.496094 -2.527344 C 4.253906 -2.527344 5.355469 -3.34375 6.574219 -5.566406 C 6.59375 -5.640625 6.609375 -5.699219 6.609375 -5.738281 C 6.609375 -5.890625 6.535156 -6.003906 6.402344 -6.078125 C 6.363281 -6.097656 6.308594 -6.117188 6.230469 -6.117188 C 6.078125 -6.117188 5.964844 -6.058594 5.890625 -5.925781 C 5.28125 -4.710938 4.160156 -3.304688 3.609375 -3.304688 C 3.402344 -3.304688 3.285156 -3.476562 3.285156 -3.988281 C 3.285156 -4.238281 3.304688 -4.539062 3.382812 -4.921875 C 3.4375 -5.320312 3.515625 -5.71875 3.648438 -6.078125 C 3.742188 -6.363281 3.570312 -6.609375 3.285156 -6.609375 C 3.152344 -6.609375 3.039062 -6.535156 2.945312 -6.382812 C 2.488281 -5.507812 1.746094 -4.066406 0.96875 -3.496094 C 0.796875 -3.363281 0.664062 -3.304688 0.53125 -3.304688 C 0.324219 -3.304688 0.226562 -3.457031 0.226562 -3.78125 C 0.226562 -4.769531 1.347656 -6.972656 3.382812 -6.972656 C 3.589844 -6.972656 3.761719 -7.144531 3.761719 -7.351562 C 3.761719 -7.5625 3.589844 -7.730469 3.382812 -7.730469 C 1.007812 -7.730469 -0.511719 -5.320312 -0.511719 -3.78125 C -0.511719 -3.304688 -0.359375 -2.90625 -0.0585938 -2.699219 Z M -0.0585938 -2.699219 "/></g></g></g><g fill="#000000" fill-opacity="1"><g transform="translate(206.568548, 196.928908)"><g><path d="M 0.378906 -2.546875 C 0.550781 -2.546875 0.664062 -2.621094 0.722656 -2.792969 C 1.425781 -4.769531 2.261719 -6.839844 2.699219 -6.839844 C 2.773438 -6.839844 2.832031 -6.78125 2.886719 -6.648438 C 2.945312 -6.476562 2.984375 -6.25 2.984375 -5.964844 C 2.984375 -5.261719 2.851562 -4.371094 3.667969 -3.855469 C 3.875 -3.722656 4.101562 -3.648438 4.386719 -3.648438 C 5.394531 -3.648438 6.363281 -4.636719 6.933594 -5.566406 C 6.972656 -5.625 6.992188 -5.679688 6.992188 -5.757812 C 6.992188 -5.910156 6.933594 -6.023438 6.800781 -6.078125 C 6.742188 -6.117188 6.667969 -6.136719 6.59375 -6.136719 C 6.460938 -6.136719 6.34375 -6.078125 6.289062 -5.945312 C 5.925781 -5.320312 5.089844 -4.40625 4.425781 -4.40625 C 4.292969 -4.40625 4.179688 -4.445312 4.085938 -4.503906 C 3.648438 -4.789062 3.742188 -5.355469 3.742188 -5.984375 C 3.742188 -6.308594 3.722656 -6.648438 3.589844 -6.953125 C 3.417969 -7.390625 3.058594 -7.617188 2.660156 -7.617188 C 1.863281 -7.617188 1.425781 -6.609375 0.929688 -5.414062 C 1.007812 -6.15625 1.0625 -6.78125 1.140625 -7.3125 C 1.195312 -7.523438 1.027344 -7.730469 0.816406 -7.75 C 0.609375 -7.808594 0.417969 -7.636719 0.398438 -7.429688 C 0.191406 -5.964844 0.0585938 -4.160156 0 -2.945312 C -0.0195312 -2.734375 0.152344 -2.546875 0.378906 -2.546875 Z M 0.378906 -2.546875 "/></g></g></g><g fill="#000000" fill-opacity="1"><g transform="translate(220.772129, 197.22759)"><g><path d="M 9.625 -6.28125 L 1.265625 -2.515625 L 1.265625 -4.140625 L 7.46875 -6.8125 L 7.46875 -7.015625 L 1.265625 -9.6875 L 1.265625 -11.3125 L 9.625 -7.546875 Z M 9.625 -6.28125 "/></g></g></g></svg>